<svg width="1657" height="993" xmlns="http://www.w3.org/2000/svg" xmlns:xlink="http://www.w3.org/1999/xlink" xml:space="preserve" overflow="hidden"><defs><filter id="fx0" x="-10%" y="-10%" width="120%" height="120%" filterUnits="userSpaceOnUse" primitiveUnits="userSpaceOnUse"><feComponentTransfer color-interpolation-filters="sRGB"><feFuncR type="discrete" tableValues="0 0"/><feFuncG type="discrete" tableValues="0 0"/><feFuncB type="discrete" tableValues="0 0"/><feFuncA type="linear" slope="0.2" intercept="0"/></feComponentTransfer><feGaussianBlur stdDeviation="7.63889 7.63889"/></filter><filter id="fx1" x="-10%" y="-10%" width="120%" height="120%" filterUnits="userSpaceOnUse" primitiveUnits="userSpaceOnUse"><feComponentTransfer color-interpolation-filters="sRGB"><feFuncR type="discrete" tableValues="0 0"/><feFuncG type="discrete" tableValues="0 0"/><feFuncB type="discrete" tableValues="0 0"/><feFuncA type="linear" slope="0.2" intercept="0"/></feComponentTransfer><feGaussianBlur stdDeviation="7.63889 7.63889"/></filter><filter id="fx2" x="-10%" y="-10%" width="120%" height="120%" filterUnits="userSpaceOnUse" primitiveUnits="userSpaceOnUse"><feComponentTransfer color-interpolation-filters="sRGB"><feFuncR type="discrete" tableValues="0 0"/><feFuncG type="discrete" tableValues="0 0"/><feFuncB type="discrete" tableValues="0 0"/><feFuncA type="linear" slope="0.2" intercept="0"/></feComponentTransfer><feGaussianBlur stdDeviation="7.63889 7.63889"/></filter><filter id="fx3" x="-10%" y="-10%" width="120%" height="120%" filterUnits="userSpaceOnUse" primitiveUnits="userSpaceOnUse"><feComponentTransfer color-interpolation-filters="sRGB"><feFuncR type="discrete" tableValues="0 0"/><feFuncG type="discrete" tableValues="0 0"/><feFuncB type="discrete" tableValues="0 0"/><feFuncA type="linear" slope="0.2" intercept="0"/></feComponentTransfer><feGaussianBlur stdDeviation="7.63889 7.63889"/></filter><filter id="fx4" x="-10%" y="-10%" width="120%" height="120%" filterUnits="userSpaceOnUse" primitiveUnits="userSpaceOnUse"><feComponentTransfer color-interpolation-filters="sRGB"><feFuncR type="discrete" tableValues="0 0"/><feFuncG type="discrete" tableValues="0 0"/><feFuncB type="discrete" tableValues="0 0"/><feFuncA type="linear" slope="0.2" intercept="0"/></feComponentTransfer><feGaussianBlur stdDeviation="7.63889 7.63889"/></filter><clipPath id="clip5"><rect x="2596" y="629" width="1657" height="993"/></clipPath><clipPath id="clip6"><rect x="2597" y="630" width="1654" height="990"/></clipPath><clipPath id="clip7"><rect x="-7" y="-7" width="514" height="883"/></clipPath><clipPath id="clip8"><rect x="0" y="0" width="501" height="868"/></clipPath><clipPath id="clip9"><rect x="2597" y="630" width="1654" height="990"/></clipPath><clipPath id="clip10"><rect x="-7" y="-7" width="675" height="369"/></clipPath><clipPath id="clip11"><rect x="0" y="0" width="664" height="357"/></clipPath><clipPath id="clip12"><rect x="2597" y="630" width="1654" height="990"/></clipPath><clipPath id="clip13"><rect x="-7" y="-7" width="350" height="660"/></clipPath><clipPath id="clip14"><rect x="0" y="0" width="336" height="647"/></clipPath><clipPath id="clip15"><rect x="2597" y="630" width="1654" height="990"/></clipPath><clipPath id="clip16"><rect x="-7" y="-7" width="322" height="338"/></clipPath><clipPath id="clip17"><rect x="0" y="0" width="308" height="324"/></clipPath><clipPath id="clip18"><rect x="2597" y="630" width="1654" height="990"/></clipPath><clipPath id="clip19"><rect x="-7" y="-7" width="200" height="298"/></clipPath><clipPath id="clip20"><rect x="0" y="0" width="189" height="286"/></clipPath><clipPath id="clip21"><rect x="2597" y="630" width="1654" height="990"/></clipPath><clipPath id="clip22"><rect x="2597" y="630" width="1654" height="990"/></clipPath><clipPath id="clip23"><rect x="2597" y="630" width="1654" height="990"/></clipPath><clipPath id="clip24"><rect x="2597" y="630" width="1654" height="990"/></clipPath><clipPath id="clip25"><rect x="2597" y="630" width="1654" height="990"/></clipPath><clipPath id="clip26"><rect x="2597" y="630" width="1654" height="990"/></clipPath><clipPath id="clip27"><rect x="2597" y="630" width="1654" height="990"/></clipPath><clipPath id="clip28"><rect x="2597" y="630" width="1654" height="990"/></clipPath><clipPath id="clip29"><rect x="2597" y="630" width="1654" height="990"/></clipPath><clipPath id="clip30"><rect x="2597" y="630" width="1654" height="990"/></clipPath><clipPath id="clip31"><rect x="2597" y="630" width="1654" height="990"/></clipPath><clipPath id="clip32"><rect x="2597" y="630" width="1654" height="990"/></clipPath><clipPath id="clip33"><rect x="2597" y="630" width="1654" height="990"/></clipPath><clipPath id="clip34"><rect x="2597" y="630" width="1654" height="990"/></clipPath><clipPath id="clip35"><rect x="2597" y="630" width="1654" height="990"/></clipPath></defs><g clip-path="url(#clip5)" transform="translate(-2596 -629)"><rect x="2597" y="630" width="1654" height="990" fill="#FFFFFF"/><g clip-path="url(#clip6)"><g clip-path="url(#clip7)" filter="url(#fx0)" transform="translate(3090 644)"><g clip-path="url(#clip8)"><path d="M23.7723 24.0976C274.22 24.0976 477.247 227.125 477.247 477.573 477.247 622.732 407.755 759.119 290.318 844.441L157.046 661.007C258.354 587.402 280.812 445.607 207.207 344.299 164.546 285.581 96.3524 250.835 23.7726 250.835Z" fill="#4472C4" fill-rule="evenodd"/></g></g></g><g clip-path="url(#clip9)"><g clip-path="url(#clip10)" filter="url(#fx1)" transform="translate(2746 1235)"><g clip-path="url(#clip11)"><path d="M639.576 246.73C445.904 387.441 176.215 353.371 23.6215 168.917L198.326 24.3883C274.623 116.615 409.468 133.65 506.304 63.2949Z" fill="#ED7D31" fill-rule="evenodd"/></g></g></g><g clip-path="url(#clip12)"><g clip-path="url(#clip13)" filter="url(#fx2)" transform="translate(2647 787)"><g clip-path="url(#clip14)"><path d="M127.875 622.989C-17.758 446.948-9.68484 190.057 146.715 23.5078L312 178.721C233.8 261.995 229.764 390.441 302.58 478.461Z" fill="#A5A5A5" fill-rule="evenodd"/></g></g></g><g clip-path="url(#clip15)"><g clip-path="url(#clip16)" filter="url(#fx3)" transform="translate(2768 671)"><g clip-path="url(#clip17)"><path d="M23.5773 145.048C75.865 89.3676 141.37 47.7967 214.015 24.1931L284.08 239.833C247.758 251.635 215.005 272.42 188.862 300.26Z" fill="#FFC000" fill-rule="evenodd"/></g></g></g><g clip-path="url(#clip18)"><g clip-path="url(#clip19)" filter="url(#fx4)" transform="translate(2955 650)"><g clip-path="url(#clip20)"><path d="M24.46 46.0032C69.7166 31.2984 117.006 23.8085 164.591 23.8085L164.592 250.546C140.799 250.546 117.155 254.291 94.5262 261.643Z" fill="#5B9BD5" fill-rule="evenodd"/></g></g></g><g clip-path="url(#clip21)"><path d="M3118.22 676.14C3363.75 676.14 3562.8 875.187 3562.8 1120.72 3562.8 1263.04 3494.67 1396.75 3379.54 1480.4L3248.88 1300.56C3348.2 1228.4 3370.22 1089.39 3298.06 990.063 3256.23 932.497 3189.38 898.432 3118.22 898.432Z" fill="#4472C4" fill-rule="evenodd"/></g><g clip-path="url(#clip22)"><path d="M3379.54 1480.4C3189.66 1618.35 2925.26 1584.95 2775.66 1404.11L2946.94 1262.42C3021.74 1352.84 3153.94 1369.54 3248.88 1300.56Z" fill="#ED7D31" fill-rule="evenodd"/></g><g clip-path="url(#clip23)"><path d="M2775.66 1404.11C2632.88 1231.52 2640.8 979.668 2794.13 816.385L2956.17 968.555C2879.51 1050.2 2875.55 1176.12 2946.94 1262.42Z" fill="#A5A5A5" fill-rule="evenodd"/></g><g clip-path="url(#clip24)"><path d="M2794.13 816.385C2845.39 761.796 2909.61 721.04 2980.83 697.9L3049.53 909.311C3013.92 920.882 2981.81 941.259 2956.17 968.554Z" fill="#FFC000" fill-rule="evenodd"/></g><g clip-path="url(#clip25)"><path d="M2980.83 697.9C3025.2 683.483 3071.56 676.14 3118.22 676.14L3118.22 898.432C3094.89 898.432 3071.71 902.103 3049.53 909.312Z" fill="#5B9BD5" fill-rule="evenodd"/></g><g clip-path="url(#clip26)"><rect x="3655" y="888" width="23" height="23.0001" fill="#4472C4"/></g><g clip-path="url(#clip27)"><text fill="#595959" font-family="Calibri,Calibri_MSFontService,sans-serif" font-weight="400" font-size="41" transform="matrix(1 0 0 1 3687.17 911)">HMD (40%)</text></g><g clip-path="url(#clip28)"><rect x="3655" y="998" width="23" height="22" fill="#ED7D31"/></g><g clip-path="url(#clip29)"><text fill="#595959" font-family="Calibri,Calibri_MSFontService,sans-serif" font-weight="400" font-size="41" transform="matrix(1 0 0 1 3687.17 1021)">Monitor (24%)</text></g><g clip-path="url(#clip30)"><rect x="3655" y="1107" width="23" height="23" fill="#A5A5A5"/></g><g clip-path="url(#clip31)"><text fill="#595959" font-family="Calibri,Calibri_MSFontService,sans-serif" font-weight="400" font-size="41" transform="matrix(1 0 0 1 3687.17 1130)">Tablet (23%)</text></g><g clip-path="url(#clip32)"><rect x="3655" y="1217" width="23" height="22" fill="#FFC000"/></g><g clip-path="url(#clip33)"><text fill="#595959" font-family="Calibri,Calibri_MSFontService,sans-serif" font-weight="400" font-size="41" transform="matrix(1 0 0 1 3687.17 1239)">Projektor (8%)</text></g><g clip-path="url(#clip34)"><rect x="3655" y="1326" width="23" height="23" fill="#5B9BD5"/></g><g clip-path="url(#clip35)"><text fill="#595959" font-family="Calibri,Calibri_MSFontService,sans-serif" font-weight="400" font-size="41" transform="matrix(1 0 0 1 3687.17 1349)">Smartphone (5%)</text></g><rect x="2597.5" y="630.5" width="1654" height="990" stroke="#FFFFFF" stroke-width="3.4375" stroke-linejoin="round" stroke-miterlimit="10" fill="none"/></g></svg>