<svg width="1480" height="1016" xmlns="http://www.w3.org/2000/svg" xmlns:xlink="http://www.w3.org/1999/xlink" xml:space="preserve" overflow="hidden"><defs><clipPath id="clip0"><rect x="1196" y="437" width="1480" height="1016"/></clipPath></defs><g clip-path="url(#clip0)" transform="translate(-1196 -437)"><rect x="0" y="0" width="529" height="149" stroke="#000000" stroke-width="4.58333" stroke-miterlimit="8" fill="#FFFFFF" transform="matrix(-1 0 0 1 2212.5 855.5)"/><text font-family="Calibri,Calibri_MSFontService,sans-serif" font-weight="400" font-size="83" transform="matrix(1 0 0 1 1827.7 957)">Display</text><path d="M1950.79 756.5 1950.79 833.271 1946.21 833.271 1946.21 756.5ZM1962.25 828.688 1948.5 856.188 1934.75 828.688Z"/><path d="M1744.5 1081.5 2133.8 1450.17" stroke="#000000" stroke-width="4.58333" stroke-miterlimit="8" fill="none" fill-rule="evenodd"/><path d="M1849.5 1081.5 2133.95 1351.34" stroke="#000000" stroke-width="4.58333" stroke-miterlimit="8" fill="none" fill-rule="evenodd"/><path d="M0 0 0.000360892 98.8282" stroke="#000000" stroke-width="4.58333" stroke-miterlimit="8" fill="none" fill-rule="evenodd" transform="matrix(1 0 0 -1 2133.5 1450.33)"/><path d="M1744.5 1081.5 1849.34 1081.5" stroke="#000000" stroke-width="4.58333" stroke-miterlimit="8" fill="none" fill-rule="evenodd"/><path d="M1948.5 1004.5 1948.5 1213.35" stroke="#4472C4" stroke-width="3.4375" stroke-linejoin="round" stroke-miterlimit="10" stroke-dasharray="13.75 10.3125" fill="none" fill-rule="evenodd"/><path d="M1667.5 1213.5 2188.86 1216.65" stroke="#4472C4" stroke-width="3.4375" stroke-linejoin="round" stroke-miterlimit="10" stroke-dasharray="13.75 10.3125" fill="none" fill-rule="evenodd"/><path d="M2184 1214.85 2188.85 1214.85 2188.85 1217.15 2184 1217.15ZM2184.27 1202.25 2211.77 1216 2184.27 1229.75Z" fill="#4472C4"/><rect x="0" y="0" width="485" height="311" stroke="#000000" stroke-width="4.58333" stroke-miterlimit="8" fill="#FFFFFF" transform="matrix(-1 0 0 1 1683.5 1049.5)"/><text font-family="Calibri,Calibri_MSFontService,sans-serif" font-weight="400" font-size="83" transform="matrix(1 0 0 1 1277.19 1183)">Szene</text><text font-family="Calibri,Calibri_MSFontService,sans-serif" font-weight="400" font-size="83" transform="matrix(1 0 0 1 1490.75 1183)">der </text><text font-family="Calibri,Calibri_MSFontService,sans-serif" font-weight="400" font-size="83" transform="matrix(1 0 0 1 1246.23 1282)">realen</text><text font-family="Calibri,Calibri_MSFontService,sans-serif" font-weight="400" font-size="83" transform="matrix(1 0 0 1 1477.18 1282)">Welt</text><rect x="0" y="0" width="440" height="194" stroke="#000000" stroke-width="4.58333" stroke-miterlimit="8" fill="#FFFFFF" transform="matrix(-1 0 0 1 2652.5 1116.5)"/><text font-family="Calibri,Calibri_MSFontService,sans-serif" font-weight="400" font-size="83" transform="matrix(1 0 0 1 2257.05 1191)">Augen</text><text font-family="Calibri,Calibri_MSFontService,sans-serif" font-weight="400" font-size="83" transform="matrix(1 0 0 1 2490.12 1191)">des </text><text font-family="Calibri,Calibri_MSFontService,sans-serif" font-weight="400" font-size="83" transform="matrix(1 0 0 1 2304.19 1290)">Nutzers</text><rect x="1589.5" y="466.5" width="717" height="290" stroke="#000000" stroke-width="4.58333" stroke-miterlimit="8" fill="#FFFFFF"/><text font-family="Calibri,Calibri_MSFontService,sans-serif" font-weight="400" font-size="83" transform="matrix(1 0 0 1 1672.42 539)">gerendertes</text><text font-family="Calibri,Calibri_MSFontService,sans-serif" font-weight="400" font-size="83" transform="matrix(1 0 0 1 2096.59 539)">Bild </text><text font-family="Calibri,Calibri_MSFontService,sans-serif" font-weight="400" font-size="83" transform="matrix(1 0 0 1 1721.51 638)">der </text><text font-family="Calibri,Calibri_MSFontService,sans-serif" font-weight="400" font-size="83" transform="matrix(1 0 0 1 1853.86 638)">virtuellen</text><text font-family="Calibri,Calibri_MSFontService,sans-serif" font-weight="400" font-size="83" transform="matrix(1 0 0 1 1850.21 737)">Szene</text></g></svg>