<svg width="1436" height="732" xmlns="http://www.w3.org/2000/svg" xmlns:xlink="http://www.w3.org/1999/xlink" xml:space="preserve" overflow="hidden"><defs><clipPath id="clip0"><rect x="843" y="530" width="1436" height="732"/></clipPath></defs><g clip-path="url(#clip0)" transform="translate(-843 -530)"><rect x="1426.5" y="968.5" width="515" height="290" stroke="#000000" stroke-width="4.58333" stroke-miterlimit="8" fill="#FFFFFF"/><text font-family="Calibri,Calibri_MSFontService,sans-serif" font-weight="400" font-size="83" transform="matrix(1 0 0 1 1546.09 1091)">digitaler</text><text font-family="Calibri,Calibri_MSFontService,sans-serif" font-weight="400" font-size="83" transform="matrix(1 0 0 1 1476.4 1190)">Kombinierer</text><rect x="1324.5" y="559.5" width="716" height="290" stroke="#000000" stroke-width="4.58333" stroke-miterlimit="8" fill="#FFFFFF"/><text font-family="Calibri,Calibri_MSFontService,sans-serif" font-weight="400" font-size="83" transform="matrix(1 0 0 1 1406.98 632)">gerendertes</text><text font-family="Calibri,Calibri_MSFontService,sans-serif" font-weight="400" font-size="83" transform="matrix(1 0 0 1 1831.14 632)">Bild </text><text font-family="Calibri,Calibri_MSFontService,sans-serif" font-weight="400" font-size="83" transform="matrix(1 0 0 1 1456.07 731)">der </text><text font-family="Calibri,Calibri_MSFontService,sans-serif" font-weight="400" font-size="83" transform="matrix(1 0 0 1 1588.41 731)">virtuellen</text><text font-family="Calibri,Calibri_MSFontService,sans-serif" font-weight="400" font-size="83" transform="matrix(1 0 0 1 1584.77 830)">Szene</text><rect x="0" y="0" width="528" height="149" stroke="#000000" stroke-width="4.58333" stroke-miterlimit="8" fill="#FFFFFF" transform="matrix(1.83697e-16 1 1 -1.83697e-16 2105.5 683.5)"/><text font-family="Calibri,Calibri_MSFontService,sans-serif" font-weight="400" font-size="83" transform="matrix(-1.83697e-16 -1 1 -1.83697e-16 2207.24 1067)">Display</text><rect x="934.5" y="860.5" width="326" height="175" stroke="#000000" stroke-width="4.58333" stroke-miterlimit="8" fill="#FFFFFF"/><text font-family="Calibri,Calibri_MSFontService,sans-serif" font-weight="400" font-size="83" transform="matrix(1 0 0 1 999.982 925)">Video </text><text font-family="Calibri,Calibri_MSFontService,sans-serif" font-weight="400" font-size="83" transform="matrix(1 0 0 1 969.732 1024)">Kamera</text><path d="M845.5 1035.5 845.5 860.5 934.5 895.5 934.5 1000.5Z" stroke="#000000" stroke-width="4.58333" stroke-miterlimit="8" fill="#FFFFFF" fill-rule="evenodd"/><path d="M1260.5 945.208 1345.53 945.208 1345.53 1113.39 1343.24 1111.1 1403.07 1111.1 1403.07 1115.68 1340.95 1115.68 1340.95 947.5 1343.24 949.792 1260.5 949.792ZM1398.48 1099.64 1425.98 1113.39 1398.48 1127.14Z"/><path d="M1684.79 849.469 1686.07 945.378 1681.48 945.439 1680.21 849.53ZM1697.46 940.643 1684.08 968.323 1669.96 941.008Z"/><path d="M1939.21 1129.97 1939.21 1073.62 2020.85 1073.62 2018.55 1075.91 2018.55 945.208 2082.49 945.208 2082.49 949.792 2020.85 949.792 2023.14 947.5 2023.14 1078.2 1941.5 1078.2 1943.79 1075.91 1943.79 1129.97ZM2077.91 933.75 2105.41 947.5 2077.91 961.25Z"/></g></svg>