<svg width="772" height="801" xmlns="http://www.w3.org/2000/svg" xmlns:xlink="http://www.w3.org/1999/xlink" xml:space="preserve" overflow="hidden"><defs><clipPath id="clip0"><rect x="526" y="1120" width="772" height="801"/></clipPath><clipPath id="clip1"><rect x="526" y="1120" width="769" height="798"/></clipPath><clipPath id="clip2"><rect x="526" y="1120" width="769" height="798"/></clipPath><clipPath id="clip3"><rect x="764" y="1171" width="464" height="645"/></clipPath><clipPath id="clip4"><rect x="526" y="1120" width="769" height="798"/></clipPath><clipPath id="clip5"><rect x="526" y="1120" width="769" height="798"/></clipPath><clipPath id="clip6"><rect x="526" y="1120" width="769" height="798"/></clipPath><clipPath id="clip7"><rect x="526" y="1120" width="769" height="798"/></clipPath><clipPath id="clip8"><rect x="526" y="1120" width="769" height="798"/></clipPath><clipPath id="clip9"><rect x="526" y="1120" width="769" height="798"/></clipPath><clipPath id="clip10"><rect x="526" y="1120" width="769" height="798"/></clipPath><clipPath id="clip11"><rect x="526" y="1120" width="769" height="798"/></clipPath><clipPath id="clip12"><rect x="526" y="1120" width="769" height="798"/></clipPath><clipPath id="clip13"><rect x="526" y="1120" width="769" height="798"/></clipPath><clipPath id="clip14"><rect x="526" y="1120" width="769" height="798"/></clipPath><clipPath id="clip15"><rect x="526" y="1120" width="769" height="798"/></clipPath><clipPath id="clip16"><rect x="526" y="1120" width="769" height="798"/></clipPath><clipPath id="clip17"><rect x="526" y="1120" width="769" height="798"/></clipPath><clipPath id="clip18"><rect x="526" y="1120" width="769" height="798"/></clipPath><clipPath id="clip19"><rect x="526" y="1120" width="769" height="798"/></clipPath><clipPath id="clip20"><rect x="526" y="1120" width="769" height="798"/></clipPath><clipPath id="clip21"><rect x="526" y="1120" width="769" height="798"/></clipPath><clipPath id="clip22"><rect x="526" y="1120" width="769" height="798"/></clipPath><clipPath id="clip23"><rect x="526" y="1120" width="769" height="798"/></clipPath></defs><g clip-path="url(#clip0)" transform="translate(-526 -1120)"><rect x="527" y="1121" width="769" height="798" fill="#FFFFFF"/><g clip-path="url(#clip1)"><path d="M822.527 1171.5 822.527 1812.5M879.529 1171.5 879.529 1812.5M937.531 1171.5 937.531 1812.5M994.533 1171.5 994.533 1812.5M1052.53 1171.5 1052.53 1812.5M1109.54 1171.5 1109.54 1812.5M1167.54 1171.5 1167.54 1812.5M1224.5 1171.5 1224.5 1812.5" stroke="#D9D9D9" stroke-width="3.4375" stroke-linejoin="round" stroke-miterlimit="10" fill="none"/></g><g clip-path="url(#clip2)"><rect x="764.5" y="1171.5" width="460" height="641" stroke="#FFFFFF" stroke-width="3.4375" stroke-linejoin="round" stroke-miterlimit="10" fill="none"/></g><g clip-path="url(#clip3)"><path d="M1202.04 1778.06 765 1778.06 765 1740.06 1202.04 1740.06ZM972.032 1671.05 765 1671.05 765 1633.05 972.032 1633.05ZM868.028 1564.05 765 1564.05 765 1526.05 868.028 1526.05ZM880.029 1457.05 765 1457.05 765 1419.05 880.029 1419.05ZM880.029 1350.04 765 1350.04 765 1312.04 880.029 1312.04ZM834.027 1243.04 765 1243.04 765 1206.04 834.027 1206.04Z" fill="#4472C4"/></g><g clip-path="url(#clip4)"><path d="M764.5 1812.5 1224.5 1812.5" stroke="#FFFFFF" stroke-width="3.4375" stroke-linejoin="round" stroke-miterlimit="10" stroke-opacity="0.831373" fill="none" fill-rule="evenodd"/></g><g clip-path="url(#clip5)"><path d="M0 0 0.000360892 641" stroke="#D9D9D9" stroke-width="3.4375" stroke-linejoin="round" stroke-miterlimit="10" fill="none" fill-rule="evenodd" transform="matrix(1 0 0 -1 764.5 1812.5)"/></g><g clip-path="url(#clip6)"><text fill="#595959" font-family="Calibri,Calibri_MSFontService,sans-serif" font-weight="400" font-size="41" transform="matrix(1 0 0 1 754.379 1878)">0</text></g><g clip-path="url(#clip7)"><text fill="#595959" font-family="Calibri,Calibri_MSFontService,sans-serif" font-weight="400" font-size="41" transform="matrix(1 0 0 1 811.853 1878)">5</text></g><g clip-path="url(#clip8)"><text fill="#595959" font-family="Calibri,Calibri_MSFontService,sans-serif" font-weight="400" font-size="41" transform="matrix(1 0 0 1 858.877 1878)">10</text></g><g clip-path="url(#clip9)"><text fill="#595959" font-family="Calibri,Calibri_MSFontService,sans-serif" font-weight="400" font-size="41" transform="matrix(1 0 0 1 916.351 1878)">15</text></g><g clip-path="url(#clip10)"><text fill="#595959" font-family="Calibri,Calibri_MSFontService,sans-serif" font-weight="400" font-size="41" transform="matrix(1 0 0 1 973.825 1878)">20</text></g><g clip-path="url(#clip11)"><text fill="#595959" font-family="Calibri,Calibri_MSFontService,sans-serif" font-weight="400" font-size="41" transform="matrix(1 0 0 1 1031.3 1878)">25</text></g><g clip-path="url(#clip12)"><text fill="#595959" font-family="Calibri,Calibri_MSFontService,sans-serif" font-weight="400" font-size="41" transform="matrix(1 0 0 1 1088.77 1878)">30</text></g><g clip-path="url(#clip13)"><text fill="#595959" font-family="Calibri,Calibri_MSFontService,sans-serif" font-weight="400" font-size="41" transform="matrix(1 0 0 1 1146.25 1878)">35</text></g><g clip-path="url(#clip14)"><text fill="#595959" font-family="Calibri,Calibri_MSFontService,sans-serif" font-weight="400" font-size="41" transform="matrix(1 0 0 1 1203.72 1878)">40</text></g><g clip-path="url(#clip15)"><text fill="#595959" font-family="Calibri,Calibri_MSFontService,sans-serif" font-weight="400" font-size="32" transform="matrix(1 0 0 1 616.653 1769)">Montage</text></g><g clip-path="url(#clip16)"><text fill="#595959" font-family="Calibri,Calibri_MSFontService,sans-serif" font-weight="400" font-size="32" transform="matrix(1 0 0 1 620.366 1662)">Wartung</text></g><g clip-path="url(#clip17)"><text fill="#595959" font-family="Calibri,Calibri_MSFontService,sans-serif" font-weight="400" font-size="32" transform="matrix(1 0 0 1 629.326 1555)">Training</text></g><g clip-path="url(#clip18)"><text fill="#595959" font-family="Calibri,Calibri_MSFontService,sans-serif" font-weight="400" font-size="32" transform="matrix(1 0 0 1 591.697 1428)">Prozess-</text></g><g clip-path="url(#clip19)"><text fill="#595959" font-family="Calibri,Calibri_MSFontService,sans-serif" font-weight="400" font-size="32" transform="matrix(1 0 0 1 556.588 1468)">überwachung</text></g><g clip-path="url(#clip20)"><text fill="#595959" font-family="Calibri,Calibri_MSFontService,sans-serif" font-weight="400" font-size="32" transform="matrix(1 0 0 1 612.425 1322)">Prozess-</text></g><g clip-path="url(#clip21)"><text fill="#595959" font-family="Calibri,Calibri_MSFontService,sans-serif" font-weight="400" font-size="32" transform="matrix(1 0 0 1 598.044 1361)">simulation</text></g><g clip-path="url(#clip22)"><text fill="#595959" font-family="Calibri,Calibri_MSFontService,sans-serif" font-weight="400" font-size="32" transform="matrix(1 0 0 1 581.922 1215)">Qualitäts-</text></g><g clip-path="url(#clip23)"><text fill="#595959" font-family="Calibri,Calibri_MSFontService,sans-serif" font-weight="400" font-size="32" transform="matrix(1 0 0 1 556.588 1254)">überwachung</text></g><rect x="527.5" y="1121.5" width="769" height="798" stroke="#D9D9D9" stroke-width="3.4375" stroke-linejoin="round" stroke-miterlimit="10" fill="none"/></g></svg>